<svg width="96" height="31" viewBox="0 0 96 31" fill="none" xmlns="http://www.w3.org/2000/svg">
<path d="M9.53125 2.97656C10.5781 2.97656 11.3672 3.32812 11.8984 4.03125C11.9453 4.09375 11.9844 4.14844 12.0156 4.19531C12.3125 3.52344 12.7734 3.125 13.3984 3C13.5078 2.98438 13.6094 2.97656 13.7031 2.97656H14.6406C15.7031 2.97656 16.5 3.32812 17.0312 4.03125C17.2812 4.39063 17.4062 4.76563 17.4062 5.15625V15.6562C17.4062 16.9219 17.7812 17.8594 18.5312 18.4688C18.8438 18.7031 19.2812 18.9609 19.8438 19.2422L18.8125 20.6719C17.2656 20.4219 16.1094 19.8281 15.3438 18.8906C14.875 18.3281 14.6406 17.7109 14.6406 17.0391V17.0156V5.90625C14.6406 5.54687 14.4297 5.28906 14.0078 5.13281C13.8672 5.08594 13.7188 5.0625 13.5625 5.0625H12.2969V18L9.53125 15.8203V5.90625C9.53125 5.5625 9.32031 5.3125 8.89844 5.15625C8.74219 5.09375 8.58594 5.0625 8.42969 5.0625H7.16406V14.6484C7.16406 15.7891 6.61719 16.7109 5.52344 17.4141C5.05469 17.6953 4.55469 17.8906 4.02344 18L2.99219 16.6172C3.77344 15.9922 4.22656 15.1719 4.35156 14.1562C4.38281 13.875 4.39844 13.5625 4.39844 13.2188V4.52344C3.77344 4.77344 3.46094 5.3125 3.46094 6.14062L0.695312 5.20312C1.11719 4.0625 1.99219 3.35938 3.32031 3.09375C3.66406 3.01562 4.02344 2.97656 4.39844 2.97656L7.07031 3.86719C7.44531 3.28906 7.95312 2.99219 8.59375 2.97656H9.53125ZM23.5703 8.85938C24.3672 8.85938 25.2266 9.10938 26.1484 9.60938C26.9609 10.0781 27.375 10.5547 27.3906 11.0391V13.9219C27.3906 15.1875 26.8672 16.2422 25.8203 17.0859C25.0547 17.6953 24.2031 18 23.2656 18C22.4688 18 21.6094 17.75 20.6875 17.25C19.8594 16.7812 19.4375 16.3047 19.4219 15.8203V12.9375C19.4219 11.6875 19.9453 10.6406 20.9922 9.79688C21.7891 9.17188 22.6484 8.85938 23.5703 8.85938ZM24.6484 10.9219C23.3047 10.9219 22.5078 11.5312 22.2578 12.75C22.1953 13.0781 22.1641 13.4531 22.1641 13.875V15.9375C23.5078 15.9375 24.3047 15.3281 24.5547 14.1094C24.6172 13.7812 24.6484 13.4062 24.6484 12.9844V10.9219ZM33.2969 8.85938C34.0938 8.85938 34.9531 9.10938 35.875 9.60938C36.6875 10.0781 37.1016 10.5547 37.1172 11.0391V13.9219C37.1172 15.1875 36.5938 16.2422 35.5469 17.0859C34.7812 17.6953 33.9297 18 32.9922 18C32.1953 18 31.3359 17.75 30.4141 17.25C29.5859 16.7812 29.1641 16.3047 29.1484 15.8203V12.9375C29.1484 11.6875 29.6719 10.6406 30.7188 9.79688C31.5156 9.17188 32.375 8.85938 33.2969 8.85938ZM34.375 10.9219C33.0312 10.9219 32.2344 11.5312 31.9844 12.75C31.9219 13.0781 31.8906 13.4531 31.8906 13.875V15.9375C33.2344 15.9375 34.0312 15.3281 34.2812 14.1094C34.3438 13.7812 34.375 13.4062 34.375 12.9844V10.9219ZM44.5703 9.58594C43.3359 9.58594 42.4141 9.9375 41.8047 10.6406C41.7422 10.7031 41.6953 10.7578 41.6641 10.8047C43.8672 10.9297 45.3047 11.5391 45.9766 12.6328C46.2109 13.0391 46.3281 13.4766 46.3281 13.9453V15.9375H49.0938C49.0938 16.6406 48.8047 17.2109 48.2266 17.6484C47.8984 17.8828 47.5625 18 47.2188 18H40.9609C40.3047 18 39.7812 17.6719 39.3906 17.0156C39.1875 16.6719 39.0859 16.3125 39.0859 15.9375H42.6953C43.1328 15.8281 43.4062 15.5625 43.5156 15.1406C43.5312 15.0469 43.5391 14.9609 43.5391 14.8828C43.5391 13.9922 43.0938 13.4062 42.2031 13.125C41.5156 12.9219 40.4062 12.8203 38.875 12.8203C38.875 11.0391 39.4609 9.53125 40.6328 8.29688C41.5703 7.34375 42.5703 6.85938 43.6328 6.84375L44.5703 9.58594ZM50.9922 22.5469C49.9609 22.5469 49.1719 22.1953 48.625 21.4922C48.3438 21.1328 48.2031 20.75 48.2031 20.3438V4.00781L50.9922 4.73438V19.3828C50.9922 19.8828 51.2188 20.2188 51.6719 20.3906C51.7969 20.4375 51.9297 20.4609 52.0703 20.4609H53.8047C53.8047 21.1484 53.5156 21.7188 52.9375 22.1719C52.6094 22.4219 52.2734 22.5469 51.9297 22.5469H50.9922ZM54.4141 3.91406L56.4297 5.69531L54.5078 7.64062L52.4688 5.85938L54.4141 3.91406ZM55.8906 18C54.8438 18 54.0469 17.6562 53.5 16.9688C53.2344 16.6094 53.1016 16.2266 53.1016 15.8203V9.11719L55.8906 9.84375V15.0938C56 15.5312 56.2656 15.8047 56.6875 15.9141C56.7812 15.9297 56.8672 15.9375 56.9453 15.9375H58.7031C58.7031 16.6406 58.4141 17.2109 57.8359 17.6484C57.5078 17.8828 57.1719 18 56.8281 18H55.8906ZM62.875 9.14062C63.9219 9.14062 64.7109 9.48438 65.2422 10.1719C65.3047 10.2344 65.3516 10.2969 65.3828 10.3594C65.6797 9.6875 66.1406 9.28906 66.7656 9.16406C66.875 9.14844 66.9766 9.14062 67.0703 9.14062H68.0078C69.0547 9.14062 69.8516 9.48438 70.3984 10.1719C70.6641 10.5312 70.7969 10.9141 70.7969 11.3203V15.6562C70.7969 16.9219 71.1641 17.8594 71.8984 18.4688C72.2109 18.7031 72.6484 18.9609 73.2109 19.2422L72.1797 20.6719C70.6328 20.4219 69.4766 19.8281 68.7109 18.8906C68.2422 18.3281 68.0078 17.7109 68.0078 17.0391V12.2812C68.0078 11.7812 67.7812 11.4453 67.3281 11.2734C67.2031 11.2266 67.0703 11.2031 66.9297 11.2031H65.6641V18L62.875 15.8203V12.2812C62.875 11.7656 62.6484 11.4297 62.1953 11.2734C62.0703 11.2266 61.9453 11.2031 61.8203 11.2031H60.6719V15.8203C60.6719 16.6016 60.2656 17.2031 59.4531 17.625C58.9688 17.875 58.4453 18 57.8828 18H56.8047L57.8828 15.9609V9.86719L60.6719 9.14062V9.75C61.0625 9.35938 61.4922 9.15625 61.9609 9.14062H62.875ZM76.3047 15.5625L78.3203 17.3203L76.3984 19.2656L74.3594 17.4844L76.3047 15.5625ZM81.4141 3.91406L83.4297 5.69531L81.5078 7.64062L79.4688 5.85938L81.4141 3.91406ZM82.8906 18C81.8438 18 81.0469 17.6562 80.5 16.9688C80.2344 16.6094 80.1016 16.2266 80.1016 15.8203V9.11719L82.8906 9.84375V15.0938C83 15.5312 83.2656 15.8047 83.6875 15.9141C83.7812 15.9297 83.8672 15.9375 83.9453 15.9375H85.7031C85.7031 16.6406 85.4141 17.2109 84.8359 17.6484C84.5078 17.8828 84.1719 18 83.8281 18H82.8906ZM87.6719 11.2031V15.8203C87.6719 16.6016 87.2656 17.2031 86.4531 17.625C85.9688 17.875 85.4453 18 84.8828 18H83.8047L84.8828 15.9609V9.86719L87.6719 9.14062V9.75C88.0625 9.35938 88.4922 9.15625 88.9609 9.14062H89.875C90.9219 9.14062 91.7188 9.48438 92.2656 10.1719C92.5312 10.5312 92.6641 10.9141 92.6641 11.3203V15.6562C92.6641 16.875 93.0156 17.7891 93.7188 18.3984C94.0625 18.6797 94.5234 18.9609 95.1016 19.2422L94.0703 20.6719C92.5391 20.4375 91.375 19.8516 90.5781 18.9141C90.1094 18.3359 89.875 17.7109 89.875 17.0391V12.2812C89.875 11.7656 89.6484 11.4297 89.1953 11.2734C89.0703 11.2266 88.9453 11.2031 88.8203 11.2031H87.6719Z" fill="white"/>
</svg>
